<svg xmlns="http://www.w3.org/2000/svg" width="17.31" height="19.439" viewBox="0 0 17.31 19.439">
  <g id="paperclip" transform="translate(-28.042 0)">
    <g id="Group_148" data-name="Group 148" transform="translate(28.042 0)">
      <path id="Path_210" data-name="Path 210" d="M43.935,1.416a4.848,4.848,0,0,0-6.848,0l-7.21,7.21a.57.57,0,0,0,.806.806l7.21-7.21a3.793,3.793,0,0,1,5.237,0,3.707,3.707,0,0,1,0,5.237L33.061,17.64a2.333,2.333,0,0,1-3.223,0,2.281,2.281,0,0,1,0-3.222L39.5,4.638a.875.875,0,0,1,1.208,0,.856.856,0,0,1,0,1.209L31.45,15.223a.635.635,0,0,0,0,.806.569.569,0,0,0,.806,0l9.262-9.376a2,2,0,0,0,0-2.82,2.042,2.042,0,0,0-2.819,0l-9.666,9.78a3.44,3.44,0,0,0,0,4.833,3.436,3.436,0,0,0,4.834,0L43.935,8.264A4.847,4.847,0,0,0,43.935,1.416Z" transform="translate(-28.041 0)"/>
    </g>
  </g>
</svg>
