<svg xmlns="http://www.w3.org/2000/svg" width="18.985" height="17.131" viewBox="0 0 18.985 17.131">
  <g id="calendar" transform="translate(0 -25)">
    <path id="Path_56" data-name="Path 56" d="M98.743,249H97.556a.556.556,0,1,0,0,1.112h1.187a.556.556,0,1,0,0-1.112Z" transform="translate(-93.403 -215.694)"/>
    <path id="Path_57" data-name="Path 57" d="M98.743,313H97.556a.556.556,0,1,0,0,1.112h1.187a.556.556,0,1,0,0-1.112Z" transform="translate(-93.403 -277.321)"/>
    <path id="Path_58" data-name="Path 58" d="M98.743,377H97.556a.556.556,0,0,0,0,1.112h1.187a.556.556,0,0,0,0-1.112Z" transform="translate(-93.403 -338.948)"/>
    <path id="Path_59" data-name="Path 59" d="M226.743,249h-1.187a.556.556,0,1,0,0,1.112h1.187a.556.556,0,1,0,0-1.112Z" transform="translate(-216.657 -215.694)"/>
    <path id="Path_60" data-name="Path 60" d="M226.743,313h-1.187a.556.556,0,1,0,0,1.112h1.187a.556.556,0,1,0,0-1.112Z" transform="translate(-216.657 -277.321)"/>
    <path id="Path_61" data-name="Path 61" d="M226.743,377h-1.187a.556.556,0,1,0,0,1.112h1.187a.556.556,0,1,0,0-1.112Z" transform="translate(-216.657 -338.948)"/>
    <path id="Path_62" data-name="Path 62" d="M354.743,249h-1.187a.556.556,0,0,0,0,1.112h1.187a.556.556,0,0,0,0-1.112Z" transform="translate(-339.91 -215.694)"/>
    <path id="Path_63" data-name="Path 63" d="M354.743,313h-1.187a.556.556,0,0,0,0,1.112h1.187a.556.556,0,0,0,0-1.112Z" transform="translate(-339.91 -277.321)"/>
    <path id="Path_64" data-name="Path 64" d="M354.743,377h-1.187a.556.556,0,0,0,0,1.112h1.187a.556.556,0,0,0,0-1.112Z" transform="translate(-339.91 -338.948)"/>
    <path id="Path_65" data-name="Path 65" d="M17.317,26.483H15.982v-.927a.556.556,0,1,0-1.112,0v.927h-4.82v-.927a.556.556,0,1,0-1.112,0v.927H4.116v-.927a.556.556,0,1,0-1.112,0v.927H1.669A1.671,1.671,0,0,0,0,28.152V40.463a1.671,1.671,0,0,0,1.669,1.669H17.317a1.671,1.671,0,0,0,1.669-1.669V28.152A1.671,1.671,0,0,0,17.317,26.483Zm-16.2,1.669a.557.557,0,0,1,.556-.556H3v.927a.556.556,0,0,0,1.112,0V27.6h4.82v.927a.556.556,0,0,0,1.112,0V27.6h4.82v.927a.556.556,0,0,0,1.112,0V27.6h1.335a.557.557,0,0,1,.556.556V30.34H1.112Zm16.2,12.867H1.669a.557.557,0,0,1-.556-.556V31.452H17.873v9.011A.557.557,0,0,1,17.317,41.019Z" transform="translate(0)"/>
  </g>
</svg>
