<svg xmlns="http://www.w3.org/2000/svg" width="20.799" height="20.799" viewBox="0 0 20.799 20.799">
  <g id="clock" transform="translate(0)">
    <path id="Path_202" data-name="Path 202" d="M18.611,5.473a.867.867,0,0,0-.4,1.157,8.578,8.578,0,0,1,.858,3.77A8.666,8.666,0,1,1,10.4,1.733,8.562,8.562,0,0,1,15.78,3.6a.867.867,0,1,0,1.078-1.357A10.4,10.4,0,1,0,20.8,10.4a10.293,10.293,0,0,0-1.031-4.524.866.866,0,0,0-1.157-.4Zm0,0" fill="#18188b"/>
    <path id="Path_203" data-name="Path 203" d="M177.075,64A1.075,1.075,0,0,0,176,65.075V72.6a1.075,1.075,0,0,0,1.075,1.075h5.373a1.075,1.075,0,0,0,0-2.149h-4.3V65.075A1.075,1.075,0,0,0,177.075,64Zm0,0" transform="translate(-167.409 -60.811)" fill="#18188b"/>
  </g>
</svg>
