<svg xmlns="http://www.w3.org/2000/svg" width="22.06" height="19.424" viewBox="0 0 22.06 19.424">
  <g id="Speech_Bubble_48_" transform="translate(0 -30.536)">
    <g id="Group_144" data-name="Group 144" transform="translate(0 30.536)">
      <path id="Path_209" data-name="Path 209" d="M3.211,49.96H1.648l1.105-1.105a3.74,3.74,0,0,0,1.068-2.212,8.424,8.424,0,0,1-3.3-3.9,7.644,7.644,0,0,1-.221-4.9,9.59,9.59,0,0,1,3.674-5.13,12.007,12.007,0,0,1,7.093-2.175,11.891,11.891,0,0,1,8.2,2.795,8.389,8.389,0,0,1,2.092,9.61,8.629,8.629,0,0,1-2.1,2.919,11.864,11.864,0,0,1-8.194,2.806,14.909,14.909,0,0,1-3.708-.472A5.792,5.792,0,0,1,3.211,49.96Zm7.856-18.129c-5.354,0-8.639,3.193-9.52,6.357-.832,2.99.395,5.816,3.282,7.559l.323.195-.01.377a5.1,5.1,0,0,1-.516,2.113,4.587,4.587,0,0,0,2.028-1.388l.274-.323.406.121a13.393,13.393,0,0,0,3.733.528c6.663,0,9.7-4.035,9.7-7.783a7.121,7.121,0,0,0-2.373-5.3,10.631,10.631,0,0,0-7.325-2.456Z" transform="translate(0 -30.536)"/>
    </g>
  </g>
</svg>
