<svg xmlns="http://www.w3.org/2000/svg" width="20" height="20" viewBox="0 0 20 20">
  <g id="Group_519" data-name="Group 519" transform="translate(-87.287 7)">
    <g id="Group_517" data-name="Group 517">
      <circle id="Ellipse_97" data-name="Ellipse 97" cx="10" cy="10" r="10" transform="translate(87.287 -7)" fill="#55ab35"/>
    </g>
    <path id="check_3_" data-name="check (3)" d="M4.761,9.875a.635.635,0,0,1-.9,0L.279,6.29a.952.952,0,0,1,0-1.346l.449-.449a.952.952,0,0,1,1.347,0L4.312,6.732,10.359.685a.952.952,0,0,1,1.347,0l.449.449a.952.952,0,0,1,0,1.346Zm0,0" transform="translate(91.287 -2.406)" fill="#fff"/>
  </g>
</svg>
