<svg xmlns="http://www.w3.org/2000/svg" width="22.504" height="17.582" viewBox="0 0 22.504 17.582">
  <path id="iconfinder_Movies_and_Entertainment_movie_premiere_queue_film_6611441" d="M22.5,6.813a2.813,2.813,0,0,0-5.626,0A3.2,3.2,0,0,0,17.23,8.22a21.792,21.792,0,0,1-5.978.7,24.46,24.46,0,0,1-5.978-.7,3.2,3.2,0,0,0,.352-1.407A2.813,2.813,0,0,0,0,6.813,2.868,2.868,0,0,0,2.11,9.556V20.175a.7.7,0,0,0,0,1.407H3.516a.7.7,0,0,0,0-1.407V10.751a12.52,12.52,0,0,0,7.736,2.391,12.52,12.52,0,0,0,7.736-2.391v9.424a.7.7,0,0,0,0,1.407h1.407a.7.7,0,0,0,0-1.407V9.556A2.868,2.868,0,0,0,22.5,6.813Z" transform="translate(0 -4)" fill="#191992"/>
</svg>
