<?xml version="1.0" encoding="utf-8"?>
<!-- Generator: Adobe Illustrator 24.0.0, SVG Export Plug-In . SVG Version: 6.00 Build 0)  -->
<svg version="1.1" id="Layer_1" xmlns="http://www.w3.org/2000/svg" xmlns:xlink="http://www.w3.org/1999/xlink" x="0px" y="0px"
	 viewBox="0 0 22.5 17.6" style="enable-background:new 0 0 22.5 17.6;" xml:space="preserve">
<style type="text/css">
	.st0{fill:#8F8F8F;}
</style>
<path id="iconfinder_Movies_and_Entertainment_movie_premiere_queue_film_6611441" class="st0" d="M22.5,2.8c0-1.6-1.3-2.8-2.8-2.8
	c-1.6,0-2.8,1.3-2.8,2.8c0,0.5,0.1,1,0.4,1.4c-2,0.5-4,0.7-6,0.7c-2,0-4-0.2-6-0.7c0.2-0.4,0.3-0.9,0.4-1.4C5.6,1.3,4.4,0,2.8,0
	C1.3,0,0,1.3,0,2.8c0,1.3,0.9,2.4,2.1,2.7v10.6c-0.4,0-0.7,0.3-0.7,0.7c0,0.4,0.3,0.7,0.7,0.7h1.4c0.4,0,0.7-0.3,0.7-0.7
	c0-0.4-0.3-0.7-0.7-0.7V6.8c2.2,1.6,5,2.5,7.7,2.4C14,9.2,16.7,8.4,19,6.8v9.4c-0.4,0-0.7,0.3-0.7,0.7c0,0.4,0.3,0.7,0.7,0.7l0,0
	h1.4c0.4,0,0.7-0.3,0.7-0.7c0-0.4-0.3-0.7-0.7-0.7V5.6C21.6,5.2,22.5,4.1,22.5,2.8z"/>
</svg>
