<svg id="dashboard_2_" data-name="dashboard (2)" xmlns="http://www.w3.org/2000/svg" width="19.52" height="19.52" viewBox="0 0 19.52 19.52">
  <path id="Path_246" data-name="Path 246" d="M7.523,0h-6.1A1.425,1.425,0,0,0,0,1.423v3.66A1.425,1.425,0,0,0,1.423,6.507h6.1A1.425,1.425,0,0,0,8.947,5.083V1.423A1.425,1.425,0,0,0,7.523,0Zm0,0" fill="#1d1a8e"/>
  <path id="Path_247" data-name="Path 247" d="M7.523,213.332h-6.1A1.425,1.425,0,0,0,0,214.755v8.54a1.425,1.425,0,0,0,1.423,1.423h6.1A1.425,1.425,0,0,0,8.947,223.3v-8.54A1.425,1.425,0,0,0,7.523,213.332Zm0,0" transform="translate(0 -205.199)" fill="#1d1a8e"/>
  <path id="Path_248" data-name="Path 248" d="M284.856,341.332h-6.1a1.425,1.425,0,0,0-1.423,1.423v3.66a1.425,1.425,0,0,0,1.423,1.423h6.1a1.425,1.425,0,0,0,1.423-1.423v-3.66A1.425,1.425,0,0,0,284.856,341.332Zm0,0" transform="translate(-266.759 -328.319)" fill="#1d1a8e"/>
  <path id="Path_249" data-name="Path 249" d="M284.856,0h-6.1a1.425,1.425,0,0,0-1.423,1.423v8.54a1.425,1.425,0,0,0,1.423,1.423h6.1a1.425,1.425,0,0,0,1.423-1.423V1.423A1.425,1.425,0,0,0,284.856,0Zm0,0" transform="translate(-266.759)" fill="#1d1a8e"/>
</svg>
