<svg xmlns="http://www.w3.org/2000/svg" width="14.845" height="18.271" viewBox="0 0 14.845 18.271">
  <g id="trash" transform="translate(-48)">
    <path id="Path_74" data-name="Path 74" d="M61.417,2.284h-3.14V1.713A1.713,1.713,0,0,0,56.564,0H54.28a1.713,1.713,0,0,0-1.713,1.713v.571h-3.14A1.427,1.427,0,0,0,48,3.711V4.853a.571.571,0,0,0,.571.571h13.7a.571.571,0,0,0,.571-.571V3.711A1.427,1.427,0,0,0,61.417,2.284Zm-7.708-.571a.572.572,0,0,1,.571-.571h2.284a.572.572,0,0,1,.571.571v.571H53.709Z" fill="red"/>
    <path id="Path_75" data-name="Path 75" d="M73.543,184a.178.178,0,0,0-.178.187l.471,9.886a1.711,1.711,0,0,0,1.711,1.631h8.671a1.711,1.711,0,0,0,1.711-1.631l.471-9.886A.178.178,0,0,0,86.22,184Zm8.623,1.427a.571.571,0,1,1,1.142,0v7.422a.571.571,0,0,1-1.142,0Zm-2.855,0a.571.571,0,1,1,1.142,0v7.422a.571.571,0,0,1-1.142,0Zm-2.855,0a.571.571,0,1,1,1.142,0v7.422a.571.571,0,0,1-1.142,0Z" transform="translate(-24.459 -177.434)" fill="red"/>
  </g>
</svg>
