<svg id="export" xmlns="http://www.w3.org/2000/svg" width="13.129" height="14.588" viewBox="0 0 13.129 14.588">
  <path id="Path_254" data-name="Path 254" d="M14.068,23.348h-2.18v1.293h2.18c.648,0,1.151.331,1.151.616v5.736c0,.285-.5.616-1.151.616H5.829c-.648,0-1.151-.331-1.151-.616V25.258c0-.285.5-.616,1.151-.616H8.008V23.348H5.829a2.2,2.2,0,0,0-2.445,1.91v5.736A2.2,2.2,0,0,0,5.829,32.9h8.24a2.2,2.2,0,0,0,2.445-1.91V25.258A2.2,2.2,0,0,0,14.068,23.348Z" transform="translate(-3.384 -18.315)" fill="#4a47a4"/>
  <path id="Path_255" data-name="Path 255" d="M22.6,3.224a.644.644,0,0,0,.457-.189l.81-.81V8.8a.647.647,0,1,0,1.293,0V2.181l.853.853a.647.647,0,0,0,.914-.914L25,.189A.644.644,0,0,0,24.543,0h-.01a.644.644,0,0,0-.457.189L22.145,2.12a.647.647,0,0,0,.457,1.1Z" transform="translate(-17.952 0)" fill="#4a47a4"/>
</svg>
