<svg xmlns="http://www.w3.org/2000/svg" width="20.634" height="21.15" viewBox="0 0 20.634 21.15">
  <path id="filter" d="M20.241,0H1.384a.886.886,0,0,0-.79.481.9.9,0,0,0,.07.935l6.908,9.732.007.01a1.974,1.974,0,0,1,.388,1.171v7.934a.882.882,0,0,0,.882.888.908.908,0,0,0,.348-.07L13.08,19.6a.841.841,0,0,0,.579-.83V12.328a1.974,1.974,0,0,1,.387-1.171l.007-.01,6.908-9.732a.9.9,0,0,0,.07-.934A.886.886,0,0,0,20.241,0ZM13.18,10.521a3.056,3.056,0,0,0-.6,1.807V18.64L9.041,19.991V12.328a3.055,3.055,0,0,0-.6-1.807L1.739,1.073H19.887Zm0,0" transform="translate(-0.496 0)"/>
</svg>
