<svg xmlns="http://www.w3.org/2000/svg" width="18.547" height="18.547" viewBox="0 0 18.547 18.547">
  <path id="iconfinder_home_126572" d="M17.91,8.114l-1.681-1.68V2.318A1.163,1.163,0,0,0,15.07,1.159H13.91a1.163,1.163,0,0,0-1.159,1.159v.641L10.433.643A1.626,1.626,0,0,0,9.274,0,1.626,1.626,0,0,0,8.114.643L.638,8.114A1.6,1.6,0,0,0,0,9.274a1.14,1.14,0,0,0,1.159,1.159H2.318v6.955a1.163,1.163,0,0,0,1.159,1.159H6.955v-5.8a1.163,1.163,0,0,1,1.159-1.159h2.318a1.163,1.163,0,0,1,1.159,1.159v5.8H15.07a1.163,1.163,0,0,0,1.159-1.159V10.433h1.159a1.14,1.14,0,0,0,1.159-1.159A1.6,1.6,0,0,0,17.91,8.114Z" fill="#acadb2"/>
</svg>
