<?xml version="1.0" encoding="utf-8"?>
<!-- Generator: Adobe Illustrator 24.0.0, SVG Export Plug-In . SVG Version: 6.00 Build 0)  -->
<svg version="1.1" id="Layer_1" xmlns="http://www.w3.org/2000/svg" xmlns:xlink="http://www.w3.org/1999/xlink" x="0px" y="0px"
	 viewBox="0 0 18.5 18.5" style="enable-background:new 0 0 18.5 18.5;" xml:space="preserve">
<style type="text/css">
	.st0{fill:#181A90;}
</style>
<path id="iconfinder_home_126572" class="st0" d="M17.9,8.1l-1.7-1.7V2.3c0-0.6-0.5-1.2-1.2-1.2h-1.2c-0.6,0-1.2,0.5-1.2,1.2V3
	l-2.3-2.3C10.2,0.3,9.7,0,9.3,0C8.8,0,8.4,0.3,8.1,0.6L0.6,8.1C0.3,8.4,0,8.8,0,9.3c0,0.6,0.5,1.1,1.1,1.2c0,0,0,0,0,0h1.2v7
	c0,0.6,0.5,1.2,1.2,1.2H7v-5.8c0-0.6,0.5-1.2,1.2-1.2h2.3c0.6,0,1.2,0.5,1.2,1.2v5.8h3.5c0.6,0,1.2-0.5,1.2-1.2v-7h1.2
	c0.6,0,1.1-0.5,1.2-1.1c0,0,0,0,0,0C18.5,8.8,18.3,8.4,17.9,8.1z"/>
</svg>
