<svg id="Loaning" xmlns="http://www.w3.org/2000/svg" width="20.952" height="20.782" viewBox="0 0 20.952 20.782">
  <path id="Path_236" data-name="Path 236" d="M10.3,6.421a4.124,4.124,0,0,1,3.287.884,6.828,6.828,0,0,0,3.021.731,6.342,6.342,0,0,0,3.088-.809,4.236,4.236,0,0,1,3.2-.806.643.643,0,1,0,.114-1.281,5.688,5.688,0,0,0-3.787.841l.7-2.2a.9.9,0,0,0-.863-1.175H14.135a.9.9,0,0,0-.855,1.2l.76,2.225a5.646,5.646,0,0,0-3.855-.891.643.643,0,1,0,.11,1.281Z" transform="translate(-6.912 -2.609)" fill="#acadb2"/>
  <path id="Path_237" data-name="Path 237" d="M20.12,26.8a4.161,4.161,0,0,1-.391-1.524,3.919,3.919,0,0,1-2.153-6.98,4.9,4.9,0,0,0-1.825-1.09A7.4,7.4,0,0,1,11.765,18.4a8.049,8.049,0,0,1-4.075-1.15C4.109,18.529,3.8,22.98,3.839,24.918A4.17,4.17,0,0,1,3.431,26.8L2.277,29.22a2.506,2.506,0,0,0,2.261,3.588H19.013a2.508,2.508,0,0,0,2.265-3.588ZM12.387,28.84h-.14v1.175a.532.532,0,0,1-1.065,0V28.84H9.626a.532.532,0,1,1,0-1.065h2.761a.884.884,0,1,0,0-1.768H11.148a2.055,2.055,0,0,1,0-4.11h.034V20.6a.532.532,0,0,1,1.065,0v1.3h1.309a.532.532,0,1,1,0,1.065H11.148a.99.99,0,0,0,0,1.98h1.238a1.949,1.949,0,1,1,0,3.9Z" transform="translate(-2.031 -12.027)" fill="#acadb2"/>
  <path id="Path_238" data-name="Path 238" d="M47.309,20.567a2.967,2.967,0,1,0,2.967,2.967,2.967,2.967,0,0,0-2.967-2.967Zm1.235,3.4h-.761v.8a.474.474,0,1,1-.947,0v-.8h-.761a.474.474,0,1,1,0-.947h.761V22.3a.474.474,0,1,1,.947,0v.719h.761a.474.474,0,1,1,0,.947Z" transform="translate(-29.324 -14.193)" fill="#acadb2"/>
</svg>
