<?xml version="1.0" encoding="utf-8"?>
<!-- Generator: Adobe Illustrator 24.0.0, SVG Export Plug-In . SVG Version: 6.00 Build 0)  -->
<svg version="1.1" id="Loaning" xmlns="http://www.w3.org/2000/svg" xmlns:xlink="http://www.w3.org/1999/xlink" x="0px" y="0px"
	 viewBox="0 0 21 20.8" style="enable-background:new 0 0 21 20.8;" xml:space="preserve">
<style type="text/css">
	.st0{fill:#8F8F8F;}
</style>
<path id="Path_236" class="st0" d="M3.4,3.8c1.2-0.2,2.4,0.1,3.3,0.9c0.9,0.5,2,0.7,3,0.7c1.1,0,2.1-0.3,3.1-0.8
	c0.9-0.7,2.1-1,3.2-0.8c0.4,0,0.7-0.2,0.7-0.6s-0.2-0.7-0.6-0.7l0,0c-1.3-0.2-2.7,0.1-3.8,0.8L13,1.2c0.2-0.5-0.1-1-0.6-1.1
	c-0.1,0-0.2,0-0.3,0H7.2C6.7,0,6.3,0.4,6.3,0.9c0,0.1,0,0.2,0.1,0.3l0.8,2.2C6,2.7,4.6,2.4,3.3,2.5c-0.4,0-0.6,0.3-0.6,0.7
	S3,3.8,3.4,3.8C3.4,3.8,3.4,3.8,3.4,3.8L3.4,3.8z"/>
<path id="Path_237" class="st0" d="M18.1,14.8c-0.2-0.5-0.4-1-0.4-1.5c-2.2-0.2-3.8-2-3.6-4.2C14.1,8,14.7,7,15.5,6.3
	c-0.5-0.5-1.1-0.9-1.8-1.1c-1.2,0.8-2.6,1.2-4,1.2C8.3,6.4,6.9,6,5.7,5.2C2.1,6.5,1.8,11,1.8,12.9c0,0.7-0.1,1.3-0.4,1.9l-1.2,2.4
	c-0.6,1.2-0.1,2.7,1.2,3.3c0.3,0.2,0.7,0.2,1.1,0.2H17c1.4,0,2.5-1.1,2.5-2.5c0-0.4-0.1-0.7-0.2-1.1L18.1,14.8z M10.4,16.8h-0.1V18
	c0,0.3-0.2,0.5-0.5,0.5S9.2,18.3,9.2,18v-1.2H7.6c-0.3,0-0.5-0.2-0.5-0.5c0-0.3,0.2-0.5,0.5-0.5h2.8c0.5,0,0.9-0.4,0.9-0.9
	c0-0.5-0.4-0.9-0.9-0.9c0,0,0,0,0,0H9.1c-1.1,0-2.1-0.9-2.1-2.1S8,9.9,9.1,9.9h0V8.6C9.2,8.3,9.4,8,9.7,8c0.3,0,0.5,0.2,0.5,0.5l0,0
	v1.3h1.3c0.3,0,0.5,0.2,0.5,0.5c0,0.3-0.2,0.5-0.5,0.5l0,0H9.1c-0.5,0-1,0.4-1,1c0,0.5,0.4,1,1,1h1.2c1.1,0,1.9,0.9,1.9,2
	C12.3,15.9,11.4,16.8,10.4,16.8L10.4,16.8z"/>
<path id="Path_238" class="st0" d="M18,6.4c-1.6,0-3,1.3-3,3c0,1.6,1.3,3,3,3c1.6,0,3-1.3,3-3l0,0C21,7.7,19.6,6.4,18,6.4z
	 M19.2,9.8h-0.8v0.8c0,0.3-0.2,0.5-0.5,0.5s-0.5-0.2-0.5-0.5c0,0,0,0,0,0V9.8h-0.8c-0.3,0-0.5-0.2-0.5-0.5c0-0.3,0.2-0.5,0.5-0.5
	c0,0,0,0,0,0h0.8V8.1c0-0.3,0.2-0.5,0.5-0.5s0.5,0.2,0.5,0.5c0,0,0,0,0,0v0.7h0.8c0.3,0,0.5,0.2,0.5,0.5C19.7,9.5,19.5,9.8,19.2,9.8
	C19.2,9.8,19.2,9.8,19.2,9.8L19.2,9.8z"/>
</svg>
