<svg xmlns="http://www.w3.org/2000/svg" xmlns:xlink="http://www.w3.org/1999/xlink" width="143.351" height="143.351" viewBox="0 0 143.351 143.351">
  <defs>
    <filter id="Ellipse_6" x="0" y="0" width="143.351" height="143.351" filterUnits="userSpaceOnUse">
      <feOffset dx="-6" dy="14" input="SourceAlpha"/>
      <feGaussianBlur stdDeviation="17" result="blur"/>
      <feFlood flood-opacity="0.161"/>
      <feComposite operator="in" in2="blur"/>
      <feComposite in="SourceGraphic"/>
    </filter>
  </defs>
  <g id="Group_516" data-name="Group 516" transform="translate(-1494.524 -23.296)">
    <g transform="matrix(1, 0, 0, 1, 1494.52, 23.3)" filter="url(#Ellipse_6)">
      <circle id="Ellipse_6-2" data-name="Ellipse 6" cx="20.675" cy="20.675" r="20.675" transform="translate(57 37)" fill="#fff"/>
    </g>
    <path id="bell" d="M70.308,17.328a3.383,3.383,0,0,1-1.028-1.4,16.2,16.2,0,0,1-1.072-6.4c0-.008,0-.016,0-.024a6.178,6.178,0,0,0-3.637-5.6V2.426A2.426,2.426,0,0,0,62.149,0h-.2a2.426,2.426,0,0,0-2.422,2.426V3.9A6.178,6.178,0,0,0,55.89,9.527a16.2,16.2,0,0,1-1.072,6.4,3.383,3.383,0,0,1-1.028,1.4.62.62,0,0,0-.341.705.649.649,0,0,0,.64.5h4.676a3.284,3.284,0,0,0,6.568,0h4.676a.649.649,0,0,0,.64-.5A.62.62,0,0,0,70.308,17.328ZM60.8,2.426a1.148,1.148,0,0,1,1.146-1.148h.2A1.148,1.148,0,0,1,63.3,2.426v1.06a6.178,6.178,0,0,0-2.492,0V2.426ZM62.049,20.5a2.013,2.013,0,0,1-2.008-1.964h4.017A2.013,2.013,0,0,1,62.049,20.5Zm2.569-3.242H55.543a6.688,6.688,0,0,0,.334-.587,16.151,16.151,0,0,0,1.289-7.14,4.883,4.883,0,1,1,9.766,0c0,.008,0,.016,0,.024a16.118,16.118,0,0,0,1.289,7.114,6.69,6.69,0,0,0,.334.587Z" transform="translate(1510.62 70.477)"/>
  </g>
</svg>
