<?xml version="1.0" encoding="utf-8"?>
<!-- Generator: Adobe Illustrator 24.0.0, SVG Export Plug-In . SVG Version: 6.00 Build 0)  -->
<svg version="1.1" id="profit-report_2_" xmlns="http://www.w3.org/2000/svg" xmlns:xlink="http://www.w3.org/1999/xlink" x="0px"
	 y="0px" viewBox="0 0 18.7 24.9" style="enable-background:new 0 0 18.7 24.9;" xml:space="preserve">
<style type="text/css">
	.st0{fill:#181A90;}
</style>
<g id="Group_164" transform="translate(12.466)">
	<g id="Group_163">
		<path id="Path_244" class="st0" d="M0,0v6.2h6.2L0,0z"/>
	</g>
</g>
<g id="Group_166">
	<g id="Group_165">
		<path id="Path_245" class="st0" d="M12.5,7.8c-0.9,0-1.6-0.7-1.6-1.6V0H1.6C0.7,0,0,0.7,0,1.6v21.8c0,0.9,0.7,1.6,1.6,1.6h15.6
			c0.9,0,1.6-0.7,1.6-1.6V7.8H12.5z M6.2,21.8H3.1v-4.7h3.1L6.2,21.8z M10.9,21.8H7.8V14h3.1L10.9,21.8z M15.6,21.8h-3.1V10.9h3.1
			L15.6,21.8z"/>
	</g>
</g>
</svg>
