<svg xmlns="http://www.w3.org/2000/svg" width="23.831" height="21.079" viewBox="0 0 23.831 21.079">
  <g id="search" transform="translate(0 0)">
    <g id="Group_149" data-name="Group 149" transform="translate(0 0)">
      <g id="Group_148" data-name="Group 148" transform="translate(0 0)">
        <path id="Path_234" data-name="Path 234" d="M9.733.616a9.706,9.706,0,1,0,9.733,9.706A9.731,9.731,0,0,0,9.733.616Zm0,17.817a8.111,8.111,0,1,1,8.137-8.111A8.133,8.133,0,0,1,9.733,18.433Z" transform="translate(0 -0.616)"/>
      </g>
    </g>
    <g id="Group_151" data-name="Group 151" transform="translate(16.997 14.271)">
      <g id="Group_150" data-name="Group 150">
        <path id="Path_235" data-name="Path 235" d="M360.066,358.911l-5.239-5.212a.8.8,0,0,0-1.125,1.131l5.239,5.212a.8.8,0,0,0,1.125-1.131Z" transform="translate(-353.466 -353.466)"/>
      </g>
    </g>
  </g>
</svg>
