<svg xmlns="http://www.w3.org/2000/svg" width="21.061" height="21.627" viewBox="0 0 21.061 21.627">
  <g id="settings_1_" data-name="settings (1)" transform="translate(-6.71)">
    <g id="Group_501" data-name="Group 501" transform="translate(6.71)">
      <path id="Path_391" data-name="Path 391" d="M27.406,13.184l-1.988-1.554a7.827,7.827,0,0,0,.047-.816A7.59,7.59,0,0,0,25.418,10l1.99-1.555A.975.975,0,0,0,27.643,7.2L25.576,3.623a.958.958,0,0,0-1.2-.43l-2.346.942a8.042,8.042,0,0,0-1.408-.817L20.269.829A.957.957,0,0,0,19.314,0H15.169a.954.954,0,0,0-.953.822l-.358,2.5a8.291,8.291,0,0,0-1.406.817L10.1,3.192a.977.977,0,0,0-1.187.423L6.843,7.2a.969.969,0,0,0,.234,1.248L9.065,10a7.13,7.13,0,0,0,0,1.632l-1.99,1.555a.975.975,0,0,0-.234,1.242L8.908,18a.956.956,0,0,0,1.2.43l2.346-.942a8.113,8.113,0,0,0,1.408.817l.357,2.487a.956.956,0,0,0,.955.831h4.145a.955.955,0,0,0,.954-.822l.358-2.5a8.329,8.329,0,0,0,1.406-.818l2.352.944a.968.968,0,0,0,.353.067.951.951,0,0,0,.834-.488l2.076-3.6A.973.973,0,0,0,27.406,13.184ZM17.241,14.418a3.6,3.6,0,1,1,3.6-3.6A3.608,3.608,0,0,1,17.241,14.418Z" transform="translate(-6.71 0)" fill="#acadb2"/>
    </g>
  </g>
</svg>
