<svg xmlns="http://www.w3.org/2000/svg" width="26.345" height="16.021" viewBox="0 0 26.345 16.021">
  <g id="Group_284" data-name="Group 284" transform="translate(-352.873 -127.606)">
    <g id="Group_89" data-name="Group 89" transform="translate(14 3)">
      <path id="check_3_" data-name="check (3)" d="M7.407,15.138a.987.987,0,0,1-1.4,0L.434,9.56a1.481,1.481,0,0,1,0-2.095l.7-.7a1.481,1.481,0,0,1,2.1,0l3.482,3.482L16.117.84a1.481,1.481,0,0,1,2.1,0l.7.7a1.481,1.481,0,0,1,0,2.095Zm0,0" transform="translate(339.373 124.7)" fill="#43c812" stroke="#fff" stroke-width="1"/>
    </g>
    <g id="Group_276" data-name="Group 276" transform="translate(20 3)">
      <path id="check_3_2" data-name="check (3)" d="M7.407,15.138a.987.987,0,0,1-1.4,0L.434,9.56a1.481,1.481,0,0,1,0-2.095l.7-.7a1.481,1.481,0,0,1,2.1,0l3.482,3.482L16.117.84a1.481,1.481,0,0,1,2.1,0l.7.7a1.481,1.481,0,0,1,0,2.095Zm0,0" transform="translate(339.373 124.7)" fill="#43c812" stroke="#fff" stroke-width="1"/>
    </g>
  </g>
</svg>
